# xmcd
# 
# Track frame offsets:
#     150
#     13156
#     31479
#     47973
#     69915
#     82638
#     103076
#     124639
#     138570
#     164860
#     177547
#     192443
#     208888
#     228653
#     248295
#     263767
#     284345
#     305583
#     325647
# 
# Disc length: 4631
# 
# Revision: 1
# Processed by: cddbd v1.5.2PL0 Copyright (c) Steve Scherf et al.
# Submitted via: fre:ac v1.0.17
# 
DISCID=14121513
DTITLE=Axel Zwingenberger - Dave Green - Charlie Watts - The Magic of Boogie Woogie
DYEAR=2010
DGENRE=Blues
TTITLE0=Shepperton Strut
TTITLE1=Lagonda Ride
TTITLE2=Heathrow Jet
TTITLE3=Windsor Park Walk
TTITLE4=High Barn Stampede
TTITLE5=Blues, indeed
TTITLE6=Honky Tonk Train Blues
TTITLE7=V-Disc Stomp
TTITLE8=Smashingly Blue
TTITLE9=Second Line Bounce
TTITLE10=Bass goin' crazy
TTITLE11=Careless Love Swing
TTITLE12=Boogie Train Mystique
TTITLE13=Lady Be Good
TTITLE14=Boogie Asado
TTITLE15=How Long Blues
TTITLE16=Boogie Woogie Rhythm Shop
TTITLE17=Sympathy for the Drummer
TTITLE18=Farewell Smile
EXTD=
EXTT0=
EXTT1=
EXTT2=
EXTT3=
EXTT4=
EXTT5=
EXTT6=
EXTT7=
EXTT8=
EXTT9=
EXTT10=
EXTT11=
EXTT12=
EXTT13=
EXTT14=
EXTT15=
EXTT16=
EXTT17=
EXTT18=
PLAYORDER=
